<svg xmlns="http://www.w3.org/2000/svg" viewBox="0 0 318.23 364.3" width="50" height="50" fill="#000000" xml:space="preserve">
    <title>L-letra</title>
    <g id="Capa_2" data-name="Capa 2">
        <g id="Capa_1-2" data-name="Capa 1">
            <path d="M40,357.66l-2.92-4.55c11-10.59,22.15-20.57,32.4-31.41,10.47-11.07,18.85-23.7,23.17-38.58,7.83-27-6.28-50.17-33.81-55.72-2.7-.54-5.4-1.15-8.84-1.89,13.43-12.32,28.43-10.4,44.15-7,1.21-10.16-.8-19.15-6.15-27.3S75.05,177,65.27,175.38c-9.26-1.48-18.76-1.47-28.1-2.11,2.22-15.34,20-22.32,53.82-20.08-1.59-21.8-3-43.56,4.65-64.64C103.2,67.74,115.87,50.13,130,33.17c-7.9,3.12-15.37,6.56-23.14,9-14.7,4.71-29.52,3.56-44.28-.21-6.42-1.64-12.91-3-19.38-4.48-11-2.41-20.5.59-28.35,8.43-4.1,4.09-7.66,8.71-11.58,13.22C-.22,58.07-.46,56,.45,52.43c3.3-12.91,8.12-24.94,17.27-34.91C28,6.34,41,1.42,55.79.27c17.07-1.33,33.32,2.39,49.45,7.47,14.85,4.69,30,8.17,45.55,3.6,7.14-2.1,14-5.15,21-7.6,1.32-.46,2.92-.15,4.39-.2-.65,1.31-1,3-2,3.88-18.27,16.58-31.95,36-38,60.27-3.86,15.43-3.68,31-2,46.61,3.12,29.84,4.91,59.72,3.72,89.74-1.21,30.8-10.73,59-26.72,85.11q-8.07,13.19-16.11,26.4c-.76,1.25-1.35,2.61-2,3.92l1.29,1c4.88-4.11,9.83-8.14,14.62-12.34,14.84-13,28.68-27,39.16-43.8,10.25-16.46,15.81-34.59,18.61-53.72,3.15-21.46,1.39-42.85.23-64.31q-1.78-33.17-2.06-66.42a90.11,90.11,0,0,1,8-36.79c9.22-21.08,26-32.9,47.94-37.46,11-2.29,22.38-2.94,33.62-4.08,1.31-.13,2.78,1.33,4.18,2.06-1.27.9-2.42,2.31-3.82,2.62-12.55,2.81-24.16,7.28-33,17.23a46,46,0,0,0-12,30.45c-.15,13.1,1.52,26.21,2,39.33.71,19,1.67,37.93,1.4,56.88a212.68,212.68,0,0,1-7.11,52.25c-7.26,27.17-22,49.78-42.36,68.73-8.89,8.26-18.56,15.68-27.86,23.49-1.31,1.1-2.56,2.26-3.83,3.39l.67,1.37c5.54-1.57,11.07-3.2,16.63-4.7,18.64-5,37.46-9.1,56.82-10.09,26.24-1.35,49.85,6.2,71.34,21.07,14.42,10,15.43,9.84,28.81-1.42,1.14-.95,2.32-1.86,3.69-3l8.2,7.52-58.12,55.5c-13.24-7.72-25.53-16.12-38.82-22.38-27.91-13.15-57.54-16.45-88.13-12.84s-59.4,13.62-87.42,26.08C43.94,356,42.12,356.73,40,357.66Z"/>
        </g>
    </g>
</svg>