<svg xmlns="http://www.w3.org/2000/svg" viewBox="0 0 500 426.31"><defs><style>.cls-1{fill:none;}.cls-2{fill:#fff;}</style></defs><title>L-light</title><g id="Capa_2" data-name="Capa 2"><g id="Capa_1-2" data-name="Capa 1"><polygon class="cls-1" points="15.9 269.42 15.9 269.42 15.9 269.42 15.9 269.42 15.9 269.42"/><polygon points="15.9 269.42 15.9 269.42 15.9 269.42 15.9 269.42"/><path class="cls-2" d="M14.58,337.88C7.43,321.35,4.1,303.73,8.24,285.75c1.12-4.85,4-9.3,6.44-13.84.44-.87.89-1.75,1.37-2.62l-.15.13h0c.24-.41.48-.82.72-1.25l2.46-4.29L.27,241c-.09,2-.18,3.93-.27,5.87V426.31H50c-3.75-7.89-8.3-15.5-11.09-23.72C31.5,380.75,23.77,359.08,14.58,337.88Z"/><path class="cls-2" d="M15.9,269.42c.24-.41.48-.82.72-1.25-.24.43-.48.84-.72,1.25Z"/><path class="cls-2" d="M15.9,269.42h0l.15-.13h0Z"/><path class="cls-2" d="M271.4,424.72c-11.42-7.07-21.87-15.33-29.73-26.32q-17.13-24-33.56-48.4a76.33,76.33,0,0,0-17.21-18.94c-18.76-14.33-37-29.38-55.23-44.37C121.94,275.43,110.6,261.4,95.18,252c-7-4.23-13.43-9.26-19.86-13.74,3.5,19.52,6.91,38.8,10.48,58.06a5.6,5.6,0,0,0,2.66,3.5c11.84,5.66,23.82,11.05,35.67,16.69,17.45,8.31,33,19.19,42.48,36.49,6,10.89,10.69,22.52,15.28,34.09,5.67,14.32,11.84,28.22,23.11,39.18h68A9.62,9.62,0,0,0,271.4,424.72Z"/><path class="cls-2" d="M159.36,425.6c-21-7.54-39.73-19.28-58.37-31.29-7.08-4.56-11.09-10.51-12-18.47-2.2-18.31-4.1-36.65-6-55-1-10-.72-20.36-3-30.08-3.81-16.16-9.07-32-14-47.87-3.09-9.93-6.71-19.7-10.1-29.54a6.72,6.72,0,0,0-.43,4.08,596.39,596.39,0,0,1,7.68,87.91c.16,16.79.59,33.6,1.6,50.36.64,10.62,2.59,21.17,4,31.74l-1.25.45C64,379,59.85,370.21,57.31,361c-4-14.57-6.88-29.47-10.47-44.17-1.29-5.27-3.3-10.37-5-15.55A65.75,65.75,0,0,0,37.94,313c-1,3.63-2.15,7.22-3.23,10.83,1.22-15,.93-29.53-7.35-43A69.36,69.36,0,0,0,25,298.24c.23,14.39,6.15,27.07,12.82,39.45L48.94,357c4.4,7.94,8.73,15.92,13.21,23.82,7,12.29,13.71,24.83,24.32,34.5,4.47,4.07,9.66,7.35,14.53,11h59C159.79,426.06,159.62,425.69,159.36,425.6Z"/><path class="cls-2" d="M49.27,359.37a7,7,0,0,1-.33-2.37L37.77,337.69c-3-5-6.51-9.82-8.73-15.16-5.78-13.93-8.81-28.23-2.75-43a4.22,4.22,0,0,0-.32-3.16c-1.9-3.48-4-6.84-6.16-10.44-.39.34-.75.67-1.09,1l-1.92,1.74-.75.68c-.43.88-.89,1.75-1.37,2.62-11.69,23.56-6.86,47.16,3,69.77,9.46,21.68,16.5,44.12,24.74,66.18,2.41,6.44,6.34,12.31,9.57,18.45H98C72.76,410.55,62.67,383.75,49.27,359.37Z"/><path class="cls-2" d="M16.8,268.61l-.75.68h0Z"/><path class="cls-2" d="M15.9,269.42l0,0,0,0Z"/><polygon class="cls-2" points="15.9 269.42 15.9 269.42 15.9 269.42 15.9 269.42"/><path class="cls-2" d="M16.05,269.29a.3.3,0,0,1,0-.08l-.16.18,0,0Z"/><path class="cls-2" d="M493.1,392.16c-8,.26-16,.89-24,.77-4-.05-7.13.32-9.61,4-6.68,9.9-13.64,19.62-20.49,29.41h61v-34C497.7,392.25,495.4,392.09,493.1,392.16Z"/><path d="M16.05,269.29s0-.05,0-.08a.3.3,0,0,0,0,.08Z"/><path d="M14.68,271.91c.48-.87.94-1.74,1.37-2.62h0C15.57,270.16,15.12,271,14.68,271.91Z"/><polygon points="16.05 269.29 16.05 269.29 16.05 269.29 16.05 269.29 16.05 269.29"/><path class="cls-2" d="M271.32,421.86l5.68,4.45h9l-14.46-5C271.46,421.51,271.39,421.68,271.32,421.86Z"/><path class="cls-2" d="M313.06,340.85c-10.13,1.75-20.36,3.59-30.59,3.91-12.45.38-22.93-6.25-33.27-12.34-7.92-4.66-13.44-11.49-17-20.13,8.22,2.25,15.92,5.25,23.88,6.27s16.23.59,24.27-.21a34.52,34.52,0,0,0,21.94-10.27c-1.44,0-2.08,0-2.73,0-23.16,1.31-43.87-4.3-60.75-21.15a11.34,11.34,0,0,0-5.15-2.49c-5-1.27-10.14-1.92-15-3.43-9.66-3-19.09-7.39-29.55-2.84,9.62-5.41,19.26-9.8,30.68-7.12a163.24,163.24,0,0,0,18.69,3.07c2,.24,4.24-.87,6.37-1.37-.93-2-1.35-4.67-2.88-6-6.09-5.39-12.43-10.51-18.87-15.49-5.23-4.06-11.23-7.24-16-11.79s-8.31-10.36-12.16-15.31c6.22,2.53,12.54,5.41,19.09,7.63,2.48.84,6,1.11,8.15,0,10.4-5.26,15.66-17.33,13.16-28.73a49.54,49.54,0,0,1-1.28-6.86c-1.9-26.84-.14-53.56,2.62-80.24,1.12-10.89,2.36-21.76,3.53-32.6-12.94-.57-20.36-10.29-30-16.48a123.59,123.59,0,0,0,11,16.64c4,5,8.66,9.48,13,14.19a214.93,214.93,0,0,1-45-35.52c-3.44-3.6-6.09-3.56-9.72-1Q162.62,72.74,145.7,84.24c-12,8.13-23.95,16.29-36.07,24.22-7.74,5.07-16,6.12-23.83.42-12-8.72-23.64-17.79-35.26-26.93-4.43-3.49-8.37-7.6-13.17-12,3.81,26,16.13,47,30.29,67.14C48.15,118.72,32.3,97.68,19.23,74.44c8.61,36.57,27.45,68.24,47.51,99.33l-1.11.81-36-31.42c.61,1.77.89,2.69,1.24,3.58,11.18,28.49,27.3,54,46.6,77.62,27.67,33.83,60,62.72,94.26,89.66,11.63,9.15,23.69,17.87,34.5,27.92,14.12,13.14,26.53,28.16,40.9,41,17.48,15.64,36,19.69,54.59,10,16.63-8.68,26.74-23.15,34.26-39.67.68-1.51-.38-4.89-1.76-6.05C328.17,342.15,321.36,339.43,313.06,340.85Z"/><path class="cls-2" d="M394.39,107.31c-5.62,0-11.39.31-16.85-.75A163.06,163.06,0,0,1,317,81.92l25.78,32.48-.62.41L315.2,92l-.91,1c4,8.54,8.71,16.83,11.79,25.69,4,11.39,11.5,19.12,21.21,25.52a60.67,60.67,0,0,1,19.38,20.5c2.57,4.47,4.84,9.16,7.81,13.36,10.28,14.54,11.5,14,25.17,5.85,9.52-5.64,18.07-13,26.9-19.75,21.68-16.67,37.84-37.73,49.11-62.59.56-1.24.87-2.59,1.5-4.47-11,6.21-22,10-33.87,10.18C427,107.53,410.69,107.41,394.39,107.31Z"/><path class="cls-2" d="M371,56.32c12.17,7.95,25.24,10.51,39.52,8,26.37-4.61,47-17,58.32-42.29,2.19-4.87,1.61-7.34-3.51-8.75-7.15-1.95-14.49-3.16-21.94-4.72-.56,1.84-.91,2.92-1.22,4-3.95,14.08-12.07,24.3-27.17,26.55-16,2.39-30.17-1.64-40.15-15.29-2.48-3.39-3.53-7.81-5.41-11.68-.47-1-1.61-1.61-2.44-2.41L366,10.91q1.8,3.15,3.62,6.3l-1.45,1.36a43.15,43.15,0,0,0-3.67-5.05c-.93-1-2.73-2.27-3.59-1.95-5.67,2.11-11.2,4.62-16.77,7l-.5,2.06,8,5.51-1.1,1.29-8.6-6c-3.67,5.5-.79,9.45,2,13.13C351.2,44,361.28,50,371,56.32Z"/><path class="cls-2" d="M45.84,38.32c6.09,11.75,16.39,17.82,29,19.39,24.54,3.06,46.07-2.17,60.69-24.35,2.05-3.11,3.79-6,1.44-9.55A37.38,37.38,0,0,0,118.44,9.55L106.85,34l8,12.72a56.09,56.09,0,0,1-10.3-9.27c-1.71-1.93-3.1-2.15-5.51-1.22-8.28,3.19-16.37,2-24-2.1C62,27.21,54,16.59,51.78,0,46.06,2.36,41,4.11,36.2,6.56c-2.88,1.48-4,4.45-2.42,7.73C37.76,22.32,41.72,30.36,45.84,38.32Z"/></g></g></svg>