<svg xmlns="http://www.w3.org/2000/svg" viewBox="0 0 500 460"><defs><style>.cls-1{fill:none;}.cls-2{fill:#fff;}</style></defs><title>L</title><g id="Capa_2" data-name="Capa 2"><g id="Capa_1-2" data-name="Capa 1"><polygon class="cls-1" points="15.9 303.11 15.9 303.11 15.9 303.11 15.9 303.11 15.9 303.11"/><path d="M0,0V280.51c.09-1.94.18-3.89.27-5.87l18.81,22.93c-1,1.69-1.74,3-2.46,4.3l-.72,1.24,0,0,.16-.18s0,.05,0,.08l.75-.68,1.92-1.74c.34-.31.7-.64,1.09-1,2.15,3.6,4.26,7,6.16,10.44a4.25,4.25,0,0,1,.32,3.17c-6.06,14.8-3,29.1,2.75,43,2.22,5.34,5.78,10.13,8.73,15.16C31.1,359,25.18,346.32,25,331.94a69.37,69.37,0,0,1,2.41-17.4c8.28,13.49,8.57,28,7.35,43,1.08-3.61,2.22-7.2,3.23-10.83A65.75,65.75,0,0,1,41.86,335c1.68,5.18,3.69,10.28,5,15.56,3.59,14.7,6.44,29.59,10.47,44.16,2.54,9.19,6.65,17.94,10.06,26.88l1.25-.44c-1.36-10.58-3.31-21.12-4-31.75-1-16.75-1.44-33.56-1.6-50.36a596.51,596.51,0,0,0-7.68-87.91,6.72,6.72,0,0,1,.43-4.08c3.39,9.84,7,19.61,10.1,29.54,4.94,15.88,10.2,31.71,14,47.87,2.29,9.73,2,20.05,3,30.08,1.91,18.34,3.81,36.68,6,55,1,8,5,13.91,12,18.47,18.64,12,37.36,23.75,58.37,31.29.26.1.43.47.64.71h45c-11.27-11-17.44-24.85-23.11-39.17-4.59-11.58-9.31-23.21-15.28-34.1-9.47-17.29-25-28.18-42.48-36.49-11.85-5.64-23.83-11-35.67-16.69a5.58,5.58,0,0,1-2.66-3.5c-3.57-19.25-7-38.54-10.48-58.06,6.43,4.48,12.9,9.51,19.86,13.74,15.42,9.36,26.76,23.39,40.49,34.66,18.25,15,36.47,30,55.23,44.37a76.28,76.28,0,0,1,17.21,18.93q16.38,24.48,33.56,48.41c7.86,11,18.31,19.24,29.73,26.31A10,10,0,0,1,273,460h4l-5.68-4.45c.07-.18.14-.35.22-.53L286,460H439c6.85-9.79,13.81-19.51,20.49-29.4,2.48-3.66,5.58-4,9.61-4,8,.11,16-.52,24-.77,2.3-.08,4.6.08,6.9.14V0ZM341.91,55.16l8.6,6c.37-.43.73-.86,1.1-1.28l-8-5.52.5-2c5.57-2.39,11.1-4.9,16.77-7,.86-.32,2.66,1,3.59,2a43,43,0,0,1,3.67,5l1.45-1.36q-1.82-3.15-3.62-6.3L367,43.45c.83.8,2,1.44,2.44,2.41,1.88,3.87,2.93,8.29,5.41,11.68,10,13.65,24.16,17.68,40.15,15.3,15.1-2.25,23.22-12.48,27.17-26.56.31-1.09.66-2.18,1.22-4,7.45,1.57,14.79,2.77,21.94,4.73,5.12,1.4,5.7,3.87,3.51,8.74C457.55,81,436.93,93.41,410.56,98c-14.28,2.5-27.35-.06-39.52-8C361.28,83.65,351.2,77.71,344,68.29,341.12,64.61,338.24,60.66,341.91,55.16ZM36.2,40.25c4.75-2.44,9.86-4.2,15.58-6.56C54,50.28,62,60.9,75.05,67.84c7.66,4.08,15.75,5.29,24,2.09,2.41-.93,3.8-.71,5.51,1.22a56.09,56.09,0,0,0,10.3,9.27l-8-12.71c4.1-8.67,7.74-16.34,11.59-24.46A37.3,37.3,0,0,1,137,57.5c2.35,3.55.61,6.45-1.44,9.56C120.91,89.24,99.38,94.46,74.84,91.4c-12.61-1.57-22.91-7.64-29-19.39-4.12-8-8.08-16-12.06-24C32.16,44.7,33.32,41.74,36.2,40.25ZM336,387c-7.52,16.52-17.63,31-34.26,39.67-18.59,9.7-37.11,5.65-54.59-10-14.37-12.85-26.78-27.86-40.9-41-10.81-10.05-22.87-18.76-34.5-27.92-34.22-26.94-66.59-55.83-94.26-89.65-19.3-23.6-35.42-49.14-46.6-77.62-.35-.9-.63-1.82-1.24-3.59l36,31.42,1.11-.8c-20.06-31.1-38.9-62.76-47.51-99.33,13.07,23.23,28.92,44.27,48.43,62.63C53.5,150.6,41.18,129.63,37.37,103.63c4.8,4.41,8.74,8.52,13.17,12,11.62,9.15,23.31,18.21,35.26,26.94,7.8,5.7,16.09,4.64,23.83-.43,12.12-7.93,24.08-16.09,36.07-24.22q16.94-11.49,33.78-23.13c3.63-2.51,6.28-2.55,9.72,1a214.93,214.93,0,0,0,45,35.52c-4.37-4.71-9-9.2-13-14.19a123.59,123.59,0,0,1-11-16.64c9.62,6.19,17,15.91,30,16.48-1.17,10.84-2.41,21.72-3.53,32.61-2.76,26.68-4.52,53.4-2.62,80.23a49,49,0,0,0,1.28,6.86c2.5,11.4-2.76,23.47-13.16,28.73-2.19,1.11-5.67.84-8.15,0-6.55-2.22-12.87-5.09-19.09-7.62,3.85,4.94,7.42,10.73,12.16,15.3s10.72,7.74,16,11.79c6.44,5,12.78,10.1,18.87,15.49,1.53,1.36,2,4,2.88,6-2.13.5-4.33,1.61-6.37,1.38a165.49,165.49,0,0,1-18.69-3.08c-11.42-2.68-21.06,1.71-30.68,7.12,10.46-4.55,19.89-.13,29.55,2.84,4.9,1.51,10.06,2.16,15,3.43a11.35,11.35,0,0,1,5.15,2.5c16.88,16.84,37.59,22.46,60.75,21.14.65,0,1.29,0,2.73,0A34.52,34.52,0,0,1,280.31,352c-8,.8-16.31,1.22-24.27.21s-15.66-4-23.88-6.27c3.6,8.64,9.12,15.48,17,20.13,10.34,6.09,20.82,12.73,33.27,12.34,10.23-.31,20.46-2.16,30.59-3.9,8.3-1.43,15.11,1.29,21.15,6.35C335.59,382.06,336.65,385.45,336,387ZM475.66,135.31c-11.27,24.87-27.43,45.92-49.11,62.59-8.83,6.79-17.38,14.11-26.9,19.76-13.67,8.1-14.89,8.68-25.17-5.86-3-4.2-5.24-8.88-7.81-13.36a60.76,60.76,0,0,0-19.38-20.5c-9.71-6.4-17.25-14.12-21.21-25.51-3.08-8.86-7.8-17.15-11.79-25.7l.91-1,27,22.76.62-.41L317,115.61a163.24,163.24,0,0,0,60.5,24.65c5.46,1.05,11.23.71,16.85.74,16.3.1,32.6.22,48.9,0,11.9-.15,22.85-4,33.87-10.19C476.53,132.72,476.22,134.07,475.66,135.31Z"/><polygon points="15.9 303.11 15.9 303.11 15.9 303.11 15.9 303.11"/><path class="cls-2" d="M14.58,371.57C7.43,355.05,4.1,337.42,8.24,319.45c1.12-4.85,4-9.31,6.44-13.85.44-.87.89-1.74,1.37-2.62l-.15.13h0l.72-1.24c.72-1.27,1.5-2.61,2.46-4.3L.27,274.64c-.09,2-.18,3.93-.27,5.87V460H50c-3.75-7.89-8.3-15.5-11.09-23.71C31.5,414.44,23.77,392.77,14.58,371.57Z"/><path class="cls-2" d="M15.9,303.11l.72-1.24-.72,1.24Z"/><path class="cls-2" d="M15.9,303.11h0l.15-.13h0Z"/><path class="cls-2" d="M271.4,458.41c-11.42-7.07-21.87-15.33-29.73-26.31q-17.13-24-33.56-48.41a76.28,76.28,0,0,0-17.21-18.93c-18.76-14.34-37-29.39-55.23-44.37-13.73-11.27-25.07-25.3-40.49-34.66-7-4.23-13.43-9.26-19.86-13.74,3.5,19.52,6.91,38.81,10.48,58.06a5.58,5.58,0,0,0,2.66,3.5c11.84,5.67,23.82,11.05,35.67,16.69,17.45,8.31,33,19.2,42.48,36.49,6,10.89,10.69,22.52,15.28,34.1C187.56,435.15,193.73,449,205,460h68A10,10,0,0,0,271.4,458.41Z"/><path class="cls-2" d="M159.36,459.29C138.35,451.75,119.63,440,101,428c-7.08-4.56-11.09-10.51-12-18.47-2.2-18.31-4.1-36.65-6-55-1-10-.72-20.35-3-30.08-3.81-16.16-9.07-32-14-47.87-3.09-9.93-6.71-19.7-10.1-29.54a6.72,6.72,0,0,0-.43,4.08A596.51,596.51,0,0,1,63.07,339c.16,16.8.59,33.61,1.6,50.36.64,10.63,2.59,21.17,4,31.75l-1.25.44c-3.41-8.94-7.52-17.69-10.06-26.88-4-14.57-6.88-29.46-10.47-44.16-1.29-5.28-3.3-10.38-5-15.56a65.75,65.75,0,0,0-3.92,11.74c-1,3.63-2.15,7.22-3.23,10.83,1.22-15,.93-29.53-7.35-43A69.37,69.37,0,0,0,25,331.94c.23,14.38,6.15,27.07,12.82,39.44l11.17,19.31c4.4,7.94,8.73,15.92,13.21,23.82,7,12.3,13.71,24.83,24.32,34.5,4.47,4.08,9.66,7.35,14.53,11h59C159.79,459.76,159.62,459.39,159.36,459.29Z"/><path class="cls-2" d="M49.27,393.06a6.9,6.9,0,0,1-.33-2.37L37.77,371.38c-3-5-6.51-9.82-8.73-15.16-5.78-13.93-8.81-28.23-2.75-43A4.25,4.25,0,0,0,26,310c-1.9-3.47-4-6.84-6.16-10.44-.39.34-.75.67-1.09,1L16.8,302.3l-.75.68c-.43.88-.89,1.75-1.37,2.62-11.69,23.56-6.86,47.16,3,69.77,9.46,21.68,16.5,44.12,24.74,66.18C44.84,448,48.77,453.87,52,460H98C72.76,444.24,62.67,417.44,49.27,393.06Z"/><path class="cls-2" d="M16.8,302.3l-.75.68h0Z"/><path class="cls-2" d="M15.9,303.11l0,0,0,0Z"/><polygon class="cls-2" points="15.9 303.11 15.9 303.11 15.9 303.11 15.9 303.11"/><path class="cls-2" d="M16.05,303l0-.08-.16.18,0,0Z"/><path class="cls-2" d="M493.1,425.86c-8,.25-16,.88-24,.77-4-.06-7.13.31-9.61,4-6.68,9.89-13.64,19.61-20.49,29.4h61V426C497.7,425.94,495.4,425.78,493.1,425.86Z"/><path d="M17.69,375.37c-9.87-22.61-14.7-46.21-3-69.77-2.47,4.54-5.32,9-6.44,13.85-4.14,18-.81,35.6,6.34,52.12,9.19,21.2,16.92,42.87,24.33,64.72C41.7,444.5,46.25,452.11,50,460h2c-3.23-6.13-7.16-12-9.57-18.45C34.19,419.49,27.15,397.05,17.69,375.37Z"/><path d="M16.05,303s0-.05,0-.08l0,.08Z"/><path d="M14.68,305.6c.48-.87.94-1.74,1.37-2.62h0C15.57,303.86,15.12,304.73,14.68,305.6Z"/><polygon points="16.05 302.98 16.05 302.98 16.05 302.98 16.05 302.98 16.05 302.98"/><path d="M62.15,414.51c-4.48-7.9-8.81-15.88-13.21-23.82a6.9,6.9,0,0,0,.33,2.37C62.67,417.44,72.76,444.24,98,460h3c-4.87-3.64-10.06-6.91-14.53-11C75.86,439.34,69.12,426.81,62.15,414.51Z"/><path class="cls-2" d="M271.32,455.55,277,460h9l-14.46-5C271.46,455.2,271.39,455.37,271.32,455.55Z"/><path class="cls-2" d="M313.06,374.55c-10.13,1.74-20.36,3.59-30.59,3.9-12.45.39-22.93-6.25-33.27-12.34-7.92-4.65-13.44-11.49-17-20.13,8.22,2.25,15.92,5.25,23.88,6.27s16.23.59,24.27-.21a34.52,34.52,0,0,0,21.94-10.27c-1.44,0-2.08,0-2.73,0-23.16,1.32-43.87-4.3-60.75-21.14a11.35,11.35,0,0,0-5.15-2.5c-5-1.27-10.14-1.92-15-3.43-9.66-3-19.09-7.39-29.55-2.84,9.62-5.41,19.26-9.8,30.68-7.12a165.49,165.49,0,0,0,18.69,3.08c2,.23,4.24-.88,6.37-1.38-.93-2-1.35-4.67-2.88-6C235.8,295,229.46,289.9,223,284.92c-5.23-4.05-11.23-7.24-16-11.79s-8.31-10.36-12.16-15.3c6.22,2.53,12.54,5.4,19.09,7.62,2.48.84,6,1.11,8.15,0,10.4-5.26,15.66-17.33,13.16-28.73a49,49,0,0,1-1.28-6.86c-1.9-26.83-.14-53.55,2.62-80.23,1.12-10.89,2.36-21.77,3.53-32.61-12.94-.57-20.36-10.29-30-16.48a123.59,123.59,0,0,0,11,16.64c4,5,8.66,9.48,13,14.19a214.93,214.93,0,0,1-45-35.52c-3.44-3.6-6.09-3.56-9.72-1q-16.86,11.63-33.78,23.13c-12,8.13-23.95,16.29-36.07,24.22-7.74,5.07-16,6.13-23.83.43-12-8.73-23.64-17.79-35.26-26.94-4.43-3.49-8.37-7.6-13.17-12,3.81,26,16.13,47,30.29,67.14-19.51-18.36-35.36-39.4-48.43-62.63,8.61,36.57,27.45,68.23,47.51,99.33l-1.11.8-36-31.42c.61,1.77.89,2.69,1.24,3.59,11.18,28.48,27.3,54,46.6,77.62,27.67,33.82,60,62.71,94.26,89.65,11.63,9.16,23.69,17.87,34.5,27.92,14.12,13.15,26.53,28.16,40.9,41,17.48,15.63,36,19.68,54.59,10C318.34,418,328.45,403.47,336,387c.68-1.5-.38-4.89-1.76-6.05C328.17,375.84,321.36,373.12,313.06,374.55Z"/><path class="cls-2" d="M394.39,141c-5.62,0-11.39.31-16.85-.74A163.24,163.24,0,0,1,317,115.61l25.78,32.48-.62.41-27-22.76-.91,1c4,8.55,8.71,16.84,11.79,25.7,4,11.39,11.5,19.11,21.21,25.51a60.76,60.76,0,0,1,19.38,20.5c2.57,4.48,4.84,9.16,7.81,13.36,10.28,14.54,11.5,14,25.17,5.86,9.52-5.65,18.07-13,26.9-19.76,21.68-16.67,37.84-37.72,49.11-62.59.56-1.24.87-2.59,1.5-4.47-11,6.22-22,10-33.87,10.19C427,141.22,410.69,141.1,394.39,141Z"/><path class="cls-2" d="M371,90c12.17,7.94,25.24,10.5,39.52,8,26.37-4.61,47-17,58.32-42.29,2.19-4.87,1.61-7.34-3.51-8.74-7.15-2-14.49-3.16-21.94-4.73-.56,1.84-.91,2.93-1.22,4C438.26,60.36,430.14,70.59,415,72.84c-16,2.38-30.17-1.65-40.15-15.3-2.48-3.39-3.53-7.81-5.41-11.68-.47-1-1.61-1.61-2.44-2.41L366,44.6q1.8,3.15,3.62,6.3l-1.45,1.36a43,43,0,0,0-3.67-5c-.93-1-2.73-2.28-3.59-2-5.67,2.11-11.2,4.62-16.77,7l-.5,2,8,5.52c-.37.42-.73.85-1.1,1.28l-8.6-6c-3.67,5.5-.79,9.45,2,13.13C351.2,77.71,361.28,83.65,371,90Z"/><path class="cls-2" d="M45.84,72c6.09,11.75,16.39,17.82,29,19.39,24.54,3.06,46.07-2.16,60.69-24.34,2.05-3.11,3.79-6,1.44-9.56a37.3,37.3,0,0,0-18.53-14.25C114.59,51.37,111,59,106.85,67.71l8,12.71a56.09,56.09,0,0,1-10.3-9.27c-1.71-1.93-3.1-2.15-5.51-1.22-8.28,3.2-16.37,2-24-2.09C62,60.9,54,50.28,51.78,33.69,46.06,36.05,41,37.81,36.2,40.25c-2.88,1.49-4,4.45-2.42,7.73C37.76,56,41.72,64.05,45.84,72Z"/></g></g></svg>